<svg width="18" height="20" viewBox="0 0 18 20" fill="none" xmlns="http://www.w3.org/2000/svg">
<path d="M2.29984 12.1102L2.15339 12.2567L1.30505 13.105C1.30503 13.105 1.30501 13.105 1.30499 13.1051C1.20716 13.2029 1.14053 13.3276 1.11354 13.4634C1.08654 13.5991 1.1004 13.7399 1.15337 13.8678L0.691426 14.0591L1.15337 13.8678C1.20634 13.9957 1.29604 14.105 1.41112 14.1819L1.13329 14.5976L1.41113 14.1819C1.52618 14.2588 1.66145 14.2999 1.79984 14.2999L2.29984 12.1102ZM2.29984 12.1102L2.29984 11.9031M2.29984 12.1102L2.29984 11.9031M2.29984 11.9031L2.29984 7.5999C2.29984 5.82295 3.00573 4.11878 4.26223 2.86229C5.51872 1.60579 7.22289 0.899904 8.99984 0.899904C10.7768 0.899904 12.481 1.6058 13.7375 2.86229C14.9939 4.11878 15.6998 5.82295 15.6998 7.59991L15.6998 11.9031L15.6998 12.1102L15.8463 12.2567L16.6946 13.105C16.6947 13.105 16.6947 13.105 16.6947 13.1051C16.7925 13.2029 16.8591 13.3276 16.8861 13.4634C16.9131 13.5992 16.8993 13.7399 16.8463 13.8678L17.3083 14.0591L16.8463 13.8678C16.7933 13.9957 16.7036 14.105 16.5886 14.1819L16.8664 14.5976M2.29984 11.9031L16.8664 14.5976M16.8664 14.5976L16.5886 14.1819C16.4735 14.2588 16.3382 14.2999 16.1998 14.2999M16.8664 14.5976L16.1998 14.2999M16.1997 14.2999L1.79995 14.2999L16.1997 14.2999ZM16.1997 14.2999C16.1998 14.2999 16.1998 14.2999 16.1998 14.2999M16.1997 14.2999L16.1998 14.2999M8.99984 19.0999C8.17767 19.0999 7.38917 18.7733 6.80781 18.1919C6.34565 17.7298 6.04449 17.1367 5.94041 16.4999L12.0593 16.4999C11.9552 17.1367 11.654 17.7298 11.1919 18.1919C10.6105 18.7733 9.82201 19.0999 8.99984 19.0999Z" fill="#1A1F08" stroke="#1A1F08"/>
</svg>
