<svg width="20" height="20" viewBox="0 0 20 20" fill="none" xmlns="http://www.w3.org/2000/svg">
<path d="M6 5L6 1M14 5L14 1M5 9L15 9M3 19L17 19C17.5304 19 18.0391 18.7893 18.4142 18.4142C18.7893 18.0391 19 17.5304 19 17L19 5C19 4.46957 18.7893 3.96086 18.4142 3.58579C18.0391 3.21072 17.5304 3 17 3L3 3C2.46957 3 1.96086 3.21071 1.58579 3.58579C1.21071 3.96086 0.999999 4.46957 0.999999 5L0.999997 17C0.999997 17.5304 1.21071 18.0391 1.58578 18.4142C1.96086 18.7893 2.46956 19 3 19Z" stroke="#1A1F08" stroke-width="2" stroke-linecap="round" stroke-linejoin="round"/>
</svg>
