<svg width="64" height="58" viewBox="0 0 64 58" fill="none" xmlns="http://www.w3.org/2000/svg">
<path d="M25.3333 12L8.66667 12C6.89856 12 5.20286 12.7024 3.95262 13.9526C2.70238 15.2029 2 16.8986 2 18.6667L1.99999 48.6667C1.99999 50.4348 2.70237 52.1305 3.95261 53.3807C5.20286 54.6309 6.89855 55.3333 8.66666 55.3333L55.3333 55.3333C57.1014 55.3333 58.7971 54.631 60.0474 53.3807C61.2976 52.1305 62 50.4348 62 48.6667L62 18.6667C62 16.8986 61.2976 15.2029 60.0474 13.9526C58.7971 12.7024 57.1015 12 55.3333 12L38.6667 12M25.3333 12L25.3333 8.66667C25.3333 6.89856 26.0357 5.20287 27.286 3.95263C28.5362 2.70238 30.2319 2 32 2.00001C33.7681 2.00001 35.4638 2.70238 36.7141 3.95263C37.9643 5.20287 38.6667 6.89856 38.6667 8.66667L38.6667 12M25.3333 12C25.3333 13.7681 26.0357 15.4638 27.286 16.714C28.5362 17.9643 30.2319 18.6667 32 18.6667C33.7681 18.6667 35.4638 17.9643 36.7141 16.714C37.9643 15.4638 38.6667 13.7681 38.6667 12M22 38.6667C23.7681 38.6667 25.4638 37.9643 26.714 36.714C27.9643 35.4638 28.6667 33.7681 28.6667 32C28.6667 30.2319 27.9643 28.5362 26.714 27.286C25.4638 26.0357 23.7681 25.3333 22 25.3333C20.2319 25.3333 18.5362 26.0357 17.286 27.286C16.0357 28.5362 15.3333 30.2319 15.3333 32C15.3333 33.7681 16.0357 35.4638 17.286 36.714C18.5362 37.9643 20.2319 38.6667 22 38.6667ZM22 38.6667C26.3533 38.6667 30.0567 41.45 31.4333 45.3333M22 38.6667C19.9313 38.6661 17.9132 39.3069 16.2238 40.5008C14.5344 41.6947 13.2567 43.3831 12.5667 45.3333M42 28.6667L52 28.6667M42 42L48.6667 42" stroke="#1A1F08" stroke-width="4" stroke-linecap="round" stroke-linejoin="round"/>
</svg>
