<svg width="20" height="20" viewBox="0 0 20 20" fill="none" xmlns="http://www.w3.org/2000/svg">
<path d="M10.0056 0C10.0056 0 10.0009 0 9.99906 0C9.99719 0 9.99437 0 9.99249 0C4.46613 0.0457559 0 4.51863 0 10.0299C0 10.55 0.039407 11.0608 0.116345 11.5594C0.88572 16.1453 4.83393 20.0047 9.99343 20C9.99343 20 9.99812 20 10 20C10.0019 20 10.0047 20 10.0066 20C15.1661 20.0037 19.1133 16.1444 19.8837 11.5585C19.9606 11.0599 20 10.5491 20 10.0289C19.9991 4.51863 15.5329 0.0457559 10.0056 0Z" fill="#B9FC33"/>
<path d="M15.2845 11.5445C15.2845 13.4439 13.7261 14.0231 11.3352 14.1361C11.0636 14.1489 10.8463 14.37 10.8463 14.6419V14.7123C10.8463 14.9884 10.6224 15.2123 10.3463 15.2123H9.95571C9.67957 15.2123 9.45571 14.9884 9.45571 14.7123V14.6366C9.45571 14.3668 9.24119 14.1467 8.97188 14.1307C6.63681 13.992 5.1905 13.3983 4.95794 11.7412C4.91957 11.4677 5.14866 11.2418 5.4248 11.2418H6.51065C6.78679 11.2418 6.9873 11.481 7.11491 11.7258C7.31701 12.1137 7.84181 12.3483 8.93463 12.4431C9.21806 12.4677 9.45571 12.2387 9.45571 11.9542V11.1265C9.45571 10.8636 9.25096 10.6463 8.98909 10.6233C6.27093 10.3846 5.16815 9.76632 5.16815 8.14452C5.16815 6.57167 6.57536 5.94146 8.96888 5.81176C9.23956 5.79709 9.45571 5.5764 9.45571 5.30531V5.23291C9.45571 4.95677 9.67957 4.73291 9.95571 4.73291H10.3463C10.6224 4.73291 10.8463 4.95677 10.8463 5.23291V5.32852C10.8463 5.59495 11.0554 5.81322 11.3208 5.83673C13.3623 6.01759 14.6524 6.69145 14.8951 8.06589C14.9431 8.33782 14.713 8.5637 14.4368 8.5637H13.351C13.0749 8.5637 12.8749 8.32007 12.7293 8.08542C12.5339 7.77054 12.0971 7.59929 11.3747 7.5141C11.0891 7.48042 10.8463 7.71155 10.8463 7.9991V8.7095C10.8463 8.97418 11.053 9.19251 11.317 9.211C13.7942 9.3845 15.2845 9.75709 15.2845 11.5445ZM7.25399 8.24932C7.25399 8.75884 7.56822 8.93406 8.92299 9.04864C9.21075 9.07298 9.45571 8.84321 9.45571 8.55442V7.95251C9.45571 7.6738 9.22699 7.44749 8.94853 7.45926C7.59878 7.51631 7.25399 7.73768 7.25399 8.24932ZM10.8463 11.9861C10.8463 12.2674 11.0789 12.4947 11.3596 12.4786C12.7505 12.399 13.1986 12.1474 13.1986 11.6144C13.1986 11.0676 12.8963 10.8912 11.3787 10.7678C11.0908 10.7444 10.8463 10.974 10.8463 11.2628V11.9861Z" fill="black"/>
</svg>
