<svg width="20" height="20" viewBox="0 0 20 20" fill="none" xmlns="http://www.w3.org/2000/svg">
<path d="M10.0056 0H9.99906H9.99249C4.46613 0.0457559 0 4.51863 0 10.0299C0 10.55 0.039407 11.0608 0.116345 11.5594C0.88572 16.1453 4.83393 20.0047 9.99343 20H10H10.0066C15.1661 20.0037 19.1133 16.1444 19.8837 11.5585C19.9606 11.0599 20 10.5491 20 10.0289C19.9991 4.51863 15.5329 0.0457559 10.0056 0ZM1.38581 11.2009C1.34922 11.0038 1.27322 10.0317 1.62226 10.1223C1.8709 10.1868 2.02477 10.9898 2.03134 11.2149C2.05855 12.1972 1.53781 12.0226 1.38581 11.2009ZM3.99043 14.5102C3.74648 15.0266 2.91049 14.2516 2.71345 13.9836C2.56521 13.7809 2.22274 13.0572 2.66185 13.0274C3.16851 12.9928 4.22406 14.0162 3.99043 14.5102ZM4.02421 11.5165C3.54945 11.961 2.97242 11.2251 2.8054 10.8152C2.59054 10.2876 2.45356 8.96349 3.35616 9.14838C4.07863 9.29592 4.55526 11.0197 4.02421 11.5165ZM7.02571 17.1585C6.74892 17.3807 5.87352 17.0931 5.59674 16.8979C5.37187 16.7388 5.14921 16.4712 5.05239 16.2143C4.83807 15.6456 5.69826 15.9588 6.20661 16.2919C6.37737 16.404 7.09326 16.6477 7.1186 16.6906C7.19084 16.8111 7.13736 17.0688 7.02571 17.1585ZM6.5547 13.9397C6.00019 13.8808 5.40439 13.1394 5.22894 12.6473C4.95027 11.8657 5.4119 11.2186 6.26102 11.3409C7.65904 11.5426 8.49597 14.1451 6.5547 13.9397ZM11.3539 18.11C11.0912 18.3126 10.5273 18.3957 10.0056 18.3733H9.99906H9.99249C9.47082 18.3967 8.90692 18.3126 8.64421 18.1109C8.27923 17.8299 8.76712 17.4834 9.03265 17.4984C9.12554 17.503 9.24376 17.5861 9.34322 17.6029C9.57403 17.6422 9.76731 17.6758 9.99249 17.6711C9.99249 17.6711 9.99625 17.6711 9.99906 17.6711C9.99906 17.6711 10.0028 17.6711 10.0056 17.6711C10.2308 17.6758 10.4241 17.6422 10.6549 17.6029C10.7544 17.5861 10.8726 17.503 10.9655 17.4984C11.231 17.4844 11.7189 17.8289 11.3539 18.11ZM10.0056 15.6523H9.99906H9.99249C9.15556 15.6681 8.29236 15.2582 8.41809 14.4878C8.51848 13.8743 9.39576 13.6147 9.99906 13.6156C10.6014 13.6138 11.4796 13.8743 11.58 14.4878C11.7058 15.2582 10.8426 15.6681 10.0056 15.6523ZM13.7371 11.3409C14.5872 11.2186 15.0479 11.8657 14.7692 12.6473C14.5937 13.1394 13.9979 13.8818 13.4434 13.9397C11.5031 14.1451 12.3391 11.5426 13.7371 11.3409ZM14.4014 16.8979C14.1246 17.094 13.2501 17.3807 12.9724 17.1585C12.8608 17.0688 12.8073 16.8102 12.8795 16.6897C12.9049 16.6467 13.6208 16.403 13.7915 16.291C14.2998 15.9579 15.1598 15.6448 14.9459 16.2136C14.8492 16.4708 14.6264 16.7387 14.4014 16.8979ZM16.642 9.14838C17.5455 8.96349 17.4076 10.2876 17.1927 10.8152C17.0257 11.2251 16.4487 11.961 15.9739 11.5165C15.4429 11.0188 15.9195 9.29592 16.642 9.14838ZM17.2847 13.9836C17.0886 14.2516 16.2526 15.0266 16.0077 14.5102C15.7741 14.0162 16.8287 12.9928 17.3353 13.0274C17.7744 13.0572 17.4339 13.7809 17.2847 13.9836ZM16.5716 7.61135C15.7684 7.3667 15.3556 8.13148 15.2158 8.80101C15.1436 9.14558 15.1989 9.84499 14.8377 10.0103C14.5675 10.1335 14.3545 9.96451 14.0955 9.93463C13.0737 9.81791 12.173 10.5005 11.8868 11.4586C11.7292 11.9852 11.8878 12.6184 11.0996 12.5418C10.7018 12.5035 10.4616 12.3345 10.0066 12.3485C10.0066 12.3485 10.0028 12.3485 10 12.3485C10 12.3485 9.99625 12.3485 9.99343 12.3485C9.53931 12.3345 9.29818 12.5035 8.90036 12.5418C8.11222 12.6184 8.27078 11.9852 8.11315 11.4586C7.82698 10.5005 6.92531 9.81791 5.90449 9.93463C5.64459 9.96451 5.4316 10.1335 5.16232 10.0103C4.80109 9.84592 4.85645 9.14558 4.7842 8.80101C4.6444 8.13054 4.23063 7.3667 3.42841 7.61135C2.98367 7.74675 2.50422 8.42189 2.04823 7.9083C1.74048 7.56186 1.99475 6.98478 2.13736 6.60753C3.28673 3.55495 6.72828 1.47913 9.99906 1.40349C13.2708 1.47913 16.7114 3.55495 17.8617 6.60846C18.0034 6.98571 18.2586 7.5628 17.9508 7.90923C17.4948 8.42282 17.0163 7.74769 16.5707 7.61229L16.5716 7.61135ZM18.6123 11.2009C18.4603 12.0217 17.9396 12.1972 17.9668 11.2149C17.9734 10.9898 18.1263 10.1868 18.3759 10.1223C18.7258 10.0317 18.6489 11.0038 18.6123 11.2009Z" fill="#1A1F08"/>
</svg>
