<svg width="18" height="18" viewBox="0 0 18 18" fill="none" xmlns="http://www.w3.org/2000/svg">
<path d="M13.2428 12.4925L10.0605 15.6748C9.92133 15.8141 9.75607 15.9246 9.57417 16C9.39227 16.0754 9.19729 16.1142 9.00038 16.1142C8.80347 16.1142 8.60848 16.0754 8.42658 16C8.24468 15.9246 8.07942 15.8141 7.94025 15.6748L4.75725 12.4925C3.91817 11.6534 3.34675 10.5843 3.11527 9.42043C2.88378 8.25655 3.00262 7.05017 3.45675 5.95383C3.91089 4.85749 4.67993 3.92044 5.66661 3.26116C6.6533 2.60189 7.81333 2.25 9 2.25C10.1867 2.25 11.3467 2.60189 12.3334 3.26116C13.3201 3.92044 14.0891 4.85749 14.5433 5.95383C14.9974 7.05017 15.1162 8.25655 14.8847 9.42043C14.6533 10.5843 14.0818 11.6534 13.2428 12.4925V12.4925Z" stroke="white" stroke-width="1.5" stroke-linecap="round" stroke-linejoin="round"/>
<path d="M10.591 9.84099C11.0129 9.41903 11.25 8.84674 11.25 8.25C11.25 7.65326 11.0129 7.08097 10.591 6.65901C10.169 6.23705 9.59674 6 9 6C8.40326 6 7.83097 6.23705 7.40901 6.65901C6.98705 7.08097 6.75 7.65326 6.75 8.25C6.75 8.84674 6.98705 9.41903 7.40901 9.84099C7.83097 10.2629 8.40326 10.5 9 10.5C9.59674 10.5 10.169 10.2629 10.591 9.84099Z" stroke="white" stroke-width="1.5" stroke-linecap="round" stroke-linejoin="round"/>
</svg>
