<svg width="97" height="22" viewBox="0 0 97 22" fill="none" xmlns="http://www.w3.org/2000/svg">
<path d="M10.9546 6.98799e-06C10.9541 2.33467e-06 10.9535 0 10.9529 0C10.9514 0 10.9481 0 10.9466 0C10.9445 0 10.9414 0 10.9394 0C4.88934 0.0503315 0 4.97049 0 11.0329C0 11.605 0.0431413 12.1669 0.127369 12.7154C0.969647 17.7598 5.29195 22.0051 10.9403 22C10.9404 22 10.9404 22 10.9405 22C10.9412 22 10.9457 22 10.9476 22C10.9497 22 10.9527 22 10.9548 22C16.6032 22.0041 20.9245 17.7588 21.7679 12.7144C21.8521 12.1658 21.8952 11.604 21.8952 11.0318C21.8942 4.97077 17.0053 0.0507849 10.9546 6.98799e-06ZM1.51713 12.3209C1.47708 12.1042 1.39387 11.0349 1.77598 11.1346C2.04818 11.2054 2.21664 12.0888 2.22383 12.3364C2.25362 13.4169 1.68354 13.2249 1.51713 12.3209ZM4.36805 15.9612C4.36829 15.9612 4.36844 15.9615 4.36834 15.9617C4.10098 16.5288 3.18623 15.6766 2.97058 15.3819C2.80829 15.159 2.43337 14.363 2.91409 14.3301C3.46861 14.2921 4.62265 15.4172 4.36776 15.9608C4.36766 15.961 4.36782 15.9612 4.36805 15.9612ZM4.40555 12.6681C3.8858 13.1571 3.25408 12.3476 3.07125 11.8967C2.83603 11.3164 2.68606 9.85984 3.6742 10.0632C4.46512 10.2255 4.98693 12.1217 4.40555 12.6681ZM7.69147 18.8748C7.69147 18.8746 7.69124 18.8745 7.69108 18.8746C7.38763 19.1185 6.42997 18.8023 6.12709 18.5877C5.59802 18.2116 5.08004 17.2838 5.91712 17.1078C6.00369 17.0896 6.08689 17.143 6.12943 17.2205C6.28138 17.4976 6.54607 17.7574 6.79475 17.9211C6.9817 18.0444 7.76543 18.3124 7.79316 18.3597C7.87217 18.4921 7.81383 18.7761 7.69187 18.875C7.69171 18.8751 7.69147 18.875 7.69147 18.8748ZM7.17583 15.3336C6.56877 15.2689 5.91652 14.4534 5.72444 13.912C5.41937 13.0523 5.92474 12.3405 6.85433 12.475C8.38482 12.6969 9.30003 15.5596 7.1748 15.3336H7.17583ZM12.4298 19.9215C12.4298 19.9213 12.4296 19.9212 12.4294 19.9213C12.1424 20.1434 11.5277 20.2348 10.9581 20.2108C10.9552 20.2107 10.9523 20.2107 10.9495 20.2107C10.9484 20.2107 10.9473 20.2107 10.9466 20.2107C10.9445 20.2107 10.9414 20.2107 10.9394 20.2107C10.3683 20.2363 9.75095 20.1439 9.46335 19.922C9.06378 19.6128 9.59791 19.2318 9.8886 19.2482C9.99029 19.2533 10.1197 19.3448 10.2286 19.3632C10.4806 19.4063 10.6917 19.4432 10.9373 19.4383C10.9387 19.4382 10.9401 19.4382 10.9415 19.4382C10.9429 19.4382 10.9449 19.4382 10.9466 19.4382C10.9486 19.4382 10.9507 19.4382 10.9538 19.4382C11.2003 19.4434 11.4119 19.4064 11.6646 19.3632C11.7735 19.3448 11.9029 19.2533 12.0046 19.2482C12.2952 19.2328 12.829 19.6126 12.4302 19.9217C12.4301 19.9218 12.4298 19.9217 12.4298 19.9215ZM10.9557 17.2175C10.9544 17.2175 10.9531 17.2175 10.9519 17.2175C10.9502 17.2175 10.9478 17.2175 10.9466 17.2175C10.9445 17.2175 10.9414 17.2175 10.9394 17.2175C10.0232 17.2349 9.07816 16.784 9.2158 15.9366C9.32571 15.2617 10.2861 14.9762 10.9466 14.9772C11.606 14.9752 12.5675 15.2617 12.6774 15.9366C12.8149 16.7834 11.8713 17.2343 10.9557 17.2175ZM15.0383 12.475C15.0387 12.475 15.039 12.475 15.0394 12.4749C15.9696 12.3407 16.4737 13.0525 16.1687 13.912C15.9767 14.4534 15.3244 15.27 14.7173 15.3336C12.5934 15.5596 13.5071 12.6975 15.0373 12.4751C15.0376 12.475 15.038 12.475 15.0383 12.475ZM15.7661 18.5872C15.7661 18.5875 15.7659 18.5878 15.7657 18.588C15.4622 18.8037 14.5056 19.1187 14.2017 18.8743C14.0795 18.7757 14.0209 18.4912 14.1 18.3587C14.1277 18.3114 14.9115 18.0433 15.0984 17.9201C15.347 17.7564 15.6116 17.4959 15.7636 17.2194C15.8062 17.1419 15.8895 17.0886 15.976 17.1069C16.8129 17.2836 16.2954 18.2101 15.7665 18.5864C15.7662 18.5866 15.7661 18.5869 15.7661 18.5872ZM18.219 10.0632C19.2081 9.85984 19.0571 11.3164 18.8219 11.8967C18.6391 12.3476 18.0074 13.1571 17.4876 12.6681C16.9062 12.1206 17.428 10.2255 18.219 10.0632ZM18.9221 15.3819C18.9223 15.3819 18.9224 15.3821 18.9223 15.3823C18.7071 15.6775 17.7926 16.529 17.5246 15.9612C17.2688 15.4179 18.4234 14.2921 18.9781 14.3301C19.4585 14.3629 19.0853 15.1581 18.9218 15.3815C18.9217 15.3817 18.9219 15.3819 18.9221 15.3819ZM18.1414 8.373C18.1417 8.37277 18.1415 8.37237 18.1412 8.37227C17.2624 8.10382 16.8107 8.94482 16.6577 9.68111C16.5786 10.0601 16.6392 10.8295 16.2437 11.0113C15.9479 11.1469 15.7147 10.961 15.4312 10.9281C14.3126 10.7997 13.3265 11.5506 13.0133 12.6044C12.8407 13.1838 13.0143 13.8802 12.1515 13.796C11.7169 13.7539 11.4541 13.5687 10.9579 13.5832C10.9559 13.5833 10.9538 13.5833 10.9517 13.5833C10.9504 13.5833 10.9489 13.5833 10.9476 13.5833C10.9456 13.5833 10.9435 13.5833 10.9404 13.5833C10.4433 13.5679 10.1793 13.7538 9.74376 13.796C8.88094 13.8802 9.05453 13.1838 8.88197 12.6044C8.56868 11.5506 7.58157 10.7997 6.464 10.9281C6.17947 10.961 5.94631 11.1469 5.65151 11.0113C5.25605 10.8305 5.31665 10.0601 5.23756 9.68111C5.08451 8.9436 4.63152 8.10337 3.75329 8.37249C3.26641 8.52143 2.74153 9.26408 2.24232 8.69913C1.90541 8.31805 2.18377 7.68326 2.3399 7.26828C3.59819 3.91045 7.36586 1.62704 10.9466 1.54384C14.5283 1.62704 18.295 3.91045 19.5543 7.2693C19.7094 7.68428 19.9888 8.31908 19.6519 8.70016C19.1529 9.26484 18.6293 8.52315 18.1416 8.37373C18.1413 8.37363 18.1412 8.37323 18.1414 8.373ZM20.376 12.3209C20.2096 13.2238 19.6396 13.4169 19.6693 12.3364C19.6765 12.0888 19.844 11.2054 20.1172 11.1346C20.5003 11.0349 20.4161 12.1042 20.376 12.3209Z" fill="#2F52E0"/>
<path d="M26.2007 6.98799e-06C26.2002 2.33467e-06 26.1996 0 26.199 0C26.1975 0 26.1942 0 26.1927 0C26.1906 0 26.1875 0 26.1855 0C20.1354 0.0503315 15.2461 4.97049 15.2461 11.0329C15.2461 11.605 15.2892 12.1669 15.3735 12.7154C16.2157 17.7598 20.538 22.0051 26.1864 22C26.1865 22 26.1865 22 26.1866 22C26.1873 22 26.1918 22 26.1937 22C26.1958 22 26.1988 22 26.2009 22C31.8493 22.0041 36.1706 17.7588 37.0139 12.7144C37.0982 12.1658 37.1413 11.604 37.1413 11.0318C37.1403 4.97077 32.2514 0.0507849 26.2007 6.98799e-06Z" fill="#1A1F08"/>
<path d="M31.9791 12.6988C31.9791 14.8771 30.1248 15.4769 27.3165 15.5627C27.2078 15.566 27.1203 15.6547 27.1203 15.7635V16.5333C27.1203 16.6438 27.0307 16.7333 26.9203 16.7333H25.798C25.6875 16.7333 25.598 16.6438 25.598 16.5333V15.7614C25.598 15.6535 25.5115 15.5651 25.4037 15.5606C22.4887 15.4383 20.7418 14.7407 20.6422 12.5661C20.6371 12.4558 20.7272 12.3658 20.8377 12.3658H22.7212C22.8316 12.3658 22.9191 12.456 22.9339 12.5655C23.0253 13.2423 23.6314 13.6131 25.3891 13.7131C25.5027 13.7195 25.598 13.6285 25.598 13.5147V11.9121C25.598 11.807 25.5152 11.7198 25.4104 11.7119C22.1985 11.4697 20.9041 10.8061 20.9041 8.95883C20.9041 7.15566 22.5774 6.47879 25.4025 6.37763C25.5109 6.37375 25.598 6.28517 25.598 6.17675V5.40605C25.598 5.2956 25.6875 5.20605 25.798 5.20605H26.9203C27.0307 5.20605 27.1203 5.2956 27.1203 5.40605V6.1942C27.1203 6.30075 27.2045 6.38847 27.3108 6.39523C29.9066 6.56037 31.4865 7.39437 31.5928 9.21979C31.5992 9.33006 31.5089 9.41992 31.3985 9.41992H29.515C29.4045 9.41992 29.3174 9.32954 29.2999 9.22049C29.1991 8.59537 28.5899 8.32619 27.3325 8.23019C27.2177 8.22143 27.1203 8.31294 27.1203 8.42798V9.91028C27.1203 10.0161 27.2035 10.1036 27.3092 10.1103C30.2161 10.2928 31.9791 10.655 31.9791 12.6988ZM23.1876 9.0741C23.1876 9.67846 23.5876 9.85524 25.3844 9.98188C25.4997 9.99 25.598 9.89846 25.598 9.78292V8.393C25.598 8.28151 25.5063 8.19144 25.3948 8.1939C23.6239 8.233 23.1876 8.46901 23.1876 9.0741ZM27.1203 13.5438C27.1203 13.6563 27.2135 13.7468 27.3259 13.7427C29.1294 13.6781 29.6956 13.4055 29.6956 12.7756C29.6956 12.1321 29.3165 11.9549 27.3336 11.8166C27.2183 11.8085 27.1203 11.9001 27.1203 12.0156V13.5438Z" fill="#B9FC33"/>
<path d="M86.7696 16.9516C86.7635 16.8413 86.8537 16.7517 86.9642 16.7517H88.4976C88.6081 16.7517 88.6949 16.8421 88.7133 16.951C88.8246 17.6078 89.557 17.9118 91.7912 17.9118C93.8214 17.9118 94.4337 17.6862 94.4337 17.0954C94.4337 16.4724 94.004 16.365 91.5657 16.2468C88.2895 16.0964 86.9897 15.5808 86.9897 13.8944C86.9897 12.2402 88.6762 11.7139 91.4905 11.7139C94.222 11.7139 95.917 12.3717 96.038 14.0808C96.0458 14.191 95.9554 14.2811 95.8449 14.2811H94.3114C94.201 14.2811 94.1146 14.1903 94.093 14.082C93.961 13.4205 93.1122 13.2499 91.2756 13.2499C89.3744 13.2499 88.9232 13.4325 88.9232 13.9911C88.9232 14.5711 89.3744 14.6785 91.5657 14.8074C94.5303 14.9686 96.3671 15.1297 96.3671 17.031C96.3671 19.0396 94.4659 19.4478 91.6838 19.4478C88.698 19.4478 86.881 18.9541 86.7696 16.9516Z" fill="#1A1F08"/>
<path d="M86.1661 13.1564C86.1661 13.2668 86.0765 13.3564 85.9661 13.3564H80.3508C80.2403 13.3564 80.1508 13.4459 80.1508 13.5564V14.6817C80.1508 14.7921 80.2403 14.8817 80.3508 14.8817H85.9661C86.0765 14.8817 86.1661 14.9712 86.1661 15.0817V16.0781C86.1661 16.1885 86.0765 16.2781 85.9661 16.2781H80.3508C80.2403 16.2781 80.1508 16.3676 80.1508 16.4781V17.6034C80.1508 17.7138 80.2403 17.8034 80.3508 17.8034H85.9661C86.0765 17.8034 86.1661 17.8929 86.1661 18.0034V19.1394C86.1661 19.2499 86.0765 19.3394 85.9661 19.3394H78.4173C78.3068 19.3394 78.2173 19.2499 78.2173 19.1394V12.0203C78.2173 11.9099 78.3068 11.8203 78.4173 11.8203H85.9661C86.0765 11.8203 86.1661 11.9099 86.1661 12.0203V13.1564Z" fill="#1A1F08"/>
<path d="M77.2065 11.8203C77.3998 11.8203 77.4806 12.0673 77.3248 12.1816L73.4592 15.0169C73.3576 15.0915 73.3494 15.2403 73.4423 15.3256L77.4387 18.9921C77.573 19.1153 77.4858 19.3394 77.3035 19.3394H75.2222C75.1711 19.3394 75.122 19.3199 75.0848 19.2848L71.9552 16.3279C71.8851 16.2617 71.7777 16.2549 71.6999 16.3117L69.6068 17.8401C69.5553 17.8778 69.5248 17.9378 69.5248 18.0017V19.1394C69.5248 19.2499 69.4353 19.3394 69.3248 19.3394H67.7913C67.6809 19.3394 67.5913 19.2499 67.5913 19.1394V12.0203C67.5913 11.9099 67.6809 11.8203 67.7913 11.8203H69.3248C69.4353 11.8203 69.5248 11.9099 69.5248 12.0203V15.3267C69.5248 15.4902 69.7103 15.5846 69.8424 15.4884L74.8322 11.8586C74.8664 11.8337 74.9076 11.8203 74.9499 11.8203H77.2065Z" fill="#1A1F08"/>
<path d="M65.1145 19.3394C65.0389 19.3394 64.9698 19.2968 64.9358 19.2293L64.241 17.849C64.2071 17.7815 64.1379 17.7389 64.0624 17.7389H59.8081C59.7326 17.7389 59.6635 17.7815 59.6295 17.849L58.9347 19.2293C58.9007 19.2968 58.8316 19.3394 58.756 19.3394H57.0806C56.9308 19.3394 56.8342 19.1809 56.9029 19.0478L60.5743 11.9286C60.6086 11.8621 60.6772 11.8203 60.752 11.8203H63.1186C63.1934 11.8203 63.2619 11.862 63.2963 11.9284L66.9779 19.0476C67.0467 19.1807 66.9501 19.3394 66.8002 19.3394H65.1145ZM60.5506 16.0096C60.4836 16.1426 60.5803 16.2996 60.7292 16.2996H63.1423C63.291 16.2996 63.3877 16.1431 63.3212 16.0101L62.1189 13.6055C62.0453 13.4583 61.8354 13.458 61.7614 13.605L60.5506 16.0096Z" fill="#1A1F08"/>
<path d="M58.2375 11.8203C58.3479 11.8203 58.4375 11.9099 58.4375 12.0203V13.2423C58.4375 13.3527 58.3479 13.4423 58.2375 13.4423H54.9853C54.8749 13.4423 54.7853 13.5318 54.7853 13.6423V19.1394C54.7853 19.2499 54.6958 19.3394 54.5853 19.3394H53.0518C52.9414 19.3394 52.8518 19.2499 52.8518 19.1394V13.6423C52.8518 13.5318 52.7623 13.4423 52.6518 13.4423H49.3997C49.2893 13.4423 49.1997 13.3527 49.1997 13.2423V12.0203C49.1997 11.9099 49.2893 11.8203 49.3997 11.8203H58.2375Z" fill="#1A1F08"/>
<path d="M39.607 16.9516C39.6009 16.8413 39.6911 16.7517 39.8016 16.7517H41.335C41.4455 16.7517 41.5323 16.8421 41.5507 16.951C41.662 17.6078 42.3944 17.9118 44.6286 17.9118C46.6588 17.9118 47.2711 17.6862 47.2711 17.0954C47.2711 16.4724 46.8414 16.365 44.4031 16.2468C41.1269 16.0964 39.8271 15.5808 39.8271 13.8944C39.8271 12.2402 41.5136 11.7139 44.3279 11.7139C47.0594 11.7139 48.7544 12.3717 48.8754 14.0808C48.8832 14.191 48.7928 14.2811 48.6823 14.2811H47.1488C47.0384 14.2811 46.952 14.1903 46.9304 14.082C46.7984 13.4205 45.9496 13.2499 44.113 13.2499C42.2118 13.2499 41.7606 13.4325 41.7606 13.9911C41.7606 14.5711 42.2118 14.6785 44.4031 14.8074C47.3677 14.9686 49.2045 15.1297 49.2045 17.031C49.2045 19.0396 47.3033 19.4478 44.5212 19.4478C41.5354 19.4478 39.7184 18.9541 39.607 16.9516Z" fill="#1A1F08"/>
<path d="M83.1187 7.2717C83.0082 7.2717 82.9187 7.18216 82.9187 7.0717V6.21494C82.9187 6.10448 83.0082 6.01494 83.1187 6.01494H87.488C87.5984 6.01494 87.688 6.10448 87.688 6.21494V9.84303C87.688 9.95349 87.5984 10.043 87.488 10.043H86.4453C86.3405 10.043 86.2534 9.96209 86.2458 9.85754L86.207 9.32385C86.1943 9.14893 85.9729 9.06878 85.8381 9.18107C85.1272 9.77363 84.1043 10.1504 82.7361 10.1504C79.9647 10.1504 78.2676 8.77552 78.2676 6.28348C78.2676 3.79143 79.9647 2.4165 83.0583 2.4165C85.9504 2.4165 87.452 3.49907 87.6682 5.24399C87.6824 5.35853 87.5903 5.45637 87.4749 5.45637H85.888C85.7919 5.45637 85.7108 5.38746 85.6822 5.29567C85.5089 4.74033 84.9144 4.03848 83.0583 4.03848C80.5448 4.03848 80.2011 5.42415 80.2011 6.32644C80.2011 7.23948 80.5555 8.65737 83.0583 8.65737C84.7069 8.65737 85.4863 8.02224 85.6768 7.48174C85.7154 7.37196 85.623 7.2717 85.5066 7.2717H83.1187Z" fill="#1A1F08"/>
<path d="M75.6817 2.7249C75.6817 2.61445 75.7712 2.5249 75.8817 2.5249H77.4152C77.5256 2.5249 77.6152 2.61445 77.6152 2.7249V9.84401C77.6152 9.95447 77.5256 10.044 77.4152 10.044H75.072C75.0156 10.044 74.9619 10.0202 74.924 9.97851L70.2078 4.78773C70.0848 4.65241 69.8598 4.73939 69.8598 4.92222V9.84401C69.8598 9.95447 69.7702 10.044 69.6598 10.044H68.1263C68.0158 10.044 67.9263 9.95447 67.9263 9.84401V2.7249C67.9263 2.61445 68.0158 2.5249 68.1263 2.5249H70.4587C70.5151 2.5249 70.5688 2.54868 70.6067 2.5904L75.3337 7.79202C75.4566 7.92732 75.6817 7.84034 75.6817 7.65751V2.7249Z" fill="#1A1F08"/>
<path d="M66.8702 2.5249C66.9807 2.5249 67.0702 2.61445 67.0702 2.7249V9.84401C67.0702 9.95447 66.9807 10.044 66.8702 10.044H65.3367C65.2263 10.044 65.1367 9.95447 65.1367 9.84401V2.7249C65.1367 2.61445 65.2263 2.5249 65.3367 2.5249H66.8702Z" fill="#1A1F08"/>
<path d="M62.5405 2.65486C62.5697 2.57671 62.6444 2.5249 62.7278 2.5249H64.3899C64.5309 2.5249 64.6277 2.66702 64.5759 2.79826L61.7689 9.91737C61.7388 9.99379 61.665 10.044 61.5829 10.044H59.1809C59.0986 10.044 59.0246 9.99353 58.9946 9.91683L57.0174 4.85858C56.9512 4.68915 56.7115 4.68895 56.645 4.85827L54.6579 9.91713C54.6279 9.99368 54.554 10.044 54.4718 10.044H52.0803C51.9982 10.044 51.9244 9.99379 51.8942 9.91737L49.0873 2.79826C49.0355 2.66702 49.1323 2.5249 49.2733 2.5249H50.9249C51.0082 2.5249 51.0828 2.57651 51.1121 2.65445L53.1049 7.94939C53.1693 8.12038 53.4103 8.12267 53.4779 7.95293L55.5891 2.65092C55.6194 2.57483 55.693 2.5249 55.7749 2.5249H57.8777C57.9595 2.5249 58.0331 2.57475 58.0634 2.65074L60.1844 7.96296C60.2522 8.13275 60.4935 8.13008 60.5575 7.95884L62.5405 2.65486Z" fill="#1A1F08"/>
<path d="M39.607 7.65426C39.6009 7.54398 39.6911 7.45431 39.8016 7.45431H41.335C41.4455 7.45431 41.5323 7.54473 41.5507 7.65363C41.662 8.31045 42.3944 8.6144 44.6286 8.6144C46.6588 8.6144 47.2711 8.38883 47.2711 7.79804C47.2711 7.17503 46.8414 7.06761 44.4031 6.94945C41.1269 6.79907 39.8271 6.28348 39.8271 4.59705C39.8271 2.94284 41.5136 2.4165 44.3279 2.4165C47.0594 2.4165 48.7544 3.07429 48.8754 4.78346C48.8832 4.89364 48.7928 4.98374 48.6823 4.98374H47.1488C47.0384 4.98374 46.952 4.89296 46.9304 4.78464C46.7984 4.12317 45.9496 3.95255 44.113 3.95255C42.2118 3.95255 41.7606 4.13516 41.7606 4.69372C41.7606 5.27377 42.2118 5.38118 44.4031 5.51008C47.3677 5.67121 49.2045 5.83233 49.2045 7.73359C49.2045 9.74227 47.3033 10.1504 44.5212 10.1504C41.5354 10.1504 39.7184 9.65671 39.607 7.65426Z" fill="#1A1F08"/>
</svg>
